# xmcd
#
# Track frame offsets:
#	150
#	15235
#	28135
#	40885
#	52765
#	66360
#	80022
#	93342
#	105862
#	118162
#	129802
#	141915
#	155497
#	169982
#	185207
#	199127
#	212785
#	225620
#	238987
#	251875
#	265900
#	278880
#	292700
#	305132
#
# Disc length: 4256 seconds
#
# Revision: 0
# Processed by: cddbd v1.5.1PL2 Copyright (c) Steve Scherf et al.
# Submitted via: EasyCDDAExtractor 4.5.0.2
#
DISCID=5e109e18
DTITLE=Charlie and Joe McCoy - Volume 2 1936-44
DYEAR=1900
DGENRE=Blues
TTITLE0=Gypsy woman blues (Papa Charlies Boys)
TTITLE1=You can`t play me cheap (Papa Charlies Boys)
TTITLE2=Keep on trying (C.M. as Tampa Kid)
TTITLE3=Baby please don`t go (C.M. as Tampa Kid)
TTITLE4=We gonna move (Palooka Washboard Band)
TTITLE5=Back door (Palooka Washboard Band)
TTITLE6=You done tore your pants with me (Palooka Washboard Band)
TTITLE7=Save me some (Palooka Washboard Band)  
TTITLE8=If you take me back (J.M.)
TTITLE9=I`m through with you (J.M.)
TTITLE10=When you said goodbye (J.M.)
TTITLE11=I love you baby (J.M.)
TTITLE12=What will I do (J.M.)
TTITLE13=Oh Red`s twin brother (J.M.)
TTITLE14=We can`t agree (J.M.)
TTITLE15=Let`s try it again (J.M.)
TTITLE16=I`ll get you off my mind (J.M.)
TTITLE17=It ain`t no lie (J.M.)
TTITLE18=Got to go blues (J.M. with Harmon Ray, vocal)
TTITLE19=Come over and see me (J.M. with Harmon Ray, vocal)
TTITLE20=Sleeping by myself (J.M. with Harmon Ray, vocal)
TTITLE21=Bessie Lee Blues (J.M. with Harmon Ray, vocal)
TTITLE22=Your money can`t buy me (J.M.)
TTITLE23=I`m alright now (J.M.)
EXTD=
EXTT0=
EXTT1=
EXTT2=
EXTT3=
EXTT4=
EXTT5=
EXTT6=
EXTT7=
EXTT8=
EXTT9=
EXTT10=
EXTT11=
EXTT12=
EXTT13=
EXTT14=
EXTT15=
EXTT16=
EXTT17=
EXTT18=
EXTT19=
EXTT20=
EXTT21=
EXTT22=
EXTT23=
PLAYORDER=
